# xmcd
#
# Track frame offsets: 
#        150
#        22752
#        52747
#        75362
#
# Disc length: 1308 seconds
#
# Revision: 3
# Processed by: cddbd v1.5.2PL0 Copyright (c) Steve Scherf et al.
# Submitted via: ExactAudioCopy v0.99pb5
#
DISCID=17051a04
DTITLE=trf - survival dAnce
DYEAR=1994
DGENRE=J-POP
TTITLE0=survival dAnce(original single chart mix)
TTITLE1=survival dAnce(original 12"mix)
TTITLE2=survival dAnce(CXTV 17's mix)
TTITLE3=survival dAnce(orginal single chart karaoke mix)
EXTD=
EXTT0=
EXTT1=
EXTT2=
EXTT3=
PLAYORDER=
